<!-- icon666.com - MILLIONS vector ICONS FREE --><svg viewBox="-70 0 512 512" xmlns="http://www.w3.org/2000/svg"><path d="m0 226.054688v285.945312h371.007812v-285.945312zm232.59375 185.761718c-2.746094 5.066406-6.378906 9.152344-10.894531 12.265625s-9.703125 5.371094-15.558594 6.773438c-1.886719.453125-3.792969.820312-5.714844 1.128906v24.246094h-30v-24.851563c-3.976562-.691406-7.878906-1.59375-11.703125-2.71875-4.757812-1.402344-9.367187-3.082031-13.820312-5.035156-4.457032-1.949219-8.578125-4.210938-12.359375-6.773438l13.183593-26.179687c.484376.613281 2.074219 1.769531 4.757813 3.480469 2.683594 1.710937 6.011719 3.417968 9.980469 5.125 3.960937 1.710937 8.386718 3.234375 13.269531 4.578125 4.878906 1.34375 9.824219 2.011719 14.828125 2.011719 10.621094 0 15.929688-3.230469 15.929688-9.703126 0-2.4375-.796876-4.453124-2.382813-6.039062s-3.78125-3.023438-6.589844-4.304688c-2.808593-1.28125-6.132812-2.46875-9.976562-3.566406-3.84375-1.101562-8.027344-2.320312-12.539063-3.664062-5.984375-1.828125-11.167968-3.8125-15.5625-5.949219-4.394531-2.132813-8.027344-4.605469-10.894531-7.414063-2.867187-2.804687-5.003906-6.042968-6.40625-9.703124-1.40625-3.660157-2.105469-7.929688-2.105469-12.8125 0-6.835938 1.28125-12.875 3.84375-18.125 2.5625-5.246094 6.042969-9.671876 10.433594-13.273438 4.394531-3.597656 9.488281-6.316406 15.289062-8.144531.929688-.296875 1.875-.558594 2.824219-.804688v-24.144531h30v23.707031c4.007813.820313 7.871094 1.839844 11.570313 3.070313 4.027344 1.347656 7.78125 2.871094 11.257812 4.578125 3.480469 1.710937 6.683594 3.417969 9.613282 5.125l-13.183594 24.898437c-.363282-.484375-1.648438-1.402344-3.84375-2.746094-2.195313-1.339843-4.941406-2.746093-8.238282-4.210937-3.292968-1.464844-6.894531-2.746094-10.800781-3.84375-3.90625-1.101563-7.8125-1.648437-11.714843-1.648437-10.742188 0-16.113282 3.601562-16.113282 10.800781 0 2.199219.578125 4.027343 1.742188 5.492187 1.15625 1.464844 2.863281 2.777344 5.125 3.9375 2.257812 1.160156 5.09375 2.230469 8.511718 3.203125 3.414063.980469 7.382813 2.078125 11.898438 3.296875 6.226562 1.710938 11.839844 3.566406 16.84375 5.582032 5.003906 2.015624 9.246094 4.519531 12.722656 7.507812 3.480469 2.992188 6.164063 6.621094 8.054688 10.890625 1.894531 4.273437 2.839844 9.402344 2.839844 15.378906.003906 7.320313-1.371094 13.515625-4.117188 18.578125zm0 0"/><path d="m105.683594 145.820312c0-44.082031 35.738281-79.820312 79.820312-79.820312 44.082032 0 79.820313 35.738281 79.820313 79.820312v50.234376h65.671875v-50.5625c0-80.222657-65.265625-145.492188-145.492188-145.492188-80.226562 0-145.492187 65.269531-145.492187 145.492188v50.5625h65.671875zm0 0"/></svg>